<?xml version="1.0" encoding="UTF-8" standalone="no"?><!-- Generator: Gravit.io --><svg xmlns="http://www.w3.org/2000/svg" xmlns:xlink="http://www.w3.org/1999/xlink" style="isolation:isolate" viewBox="0 0 32 32" width="32pt" height="32pt"><defs><clipPath id="_clipPath_qadUODe1FcY3Plfts3n667Tjtqi7UPQv"><rect width="32" height="32"/></clipPath></defs><g clip-path="url(#_clipPath_qadUODe1FcY3Plfts3n667Tjtqi7UPQv)"><g><linearGradient id="_lgradient_0" x1="0.1766666666666668" y1="0.8733333333333335" x2="0.7499999999999996" y2="0.0033333333333330772" gradientTransform="matrix(24,0,0,24,4,4)" gradientUnits="userSpaceOnUse"><stop offset="0%" stop-opacity="1" style="stop-color:rgb(242,4,123)"/><stop offset="100%" stop-opacity="1" style="stop-color:rgb(204,0,0)"/><stop offset="100%" stop-opacity="1" style="stop-color:rgb(0,0,0)"/></linearGradient><circle vector-effect="non-scaling-stroke" cx="16" cy="15.999999999999998" r="12" fill="url(#_lgradient_0)"/><linearGradient id="_lgradient_1" x1="0.8601851851851852" y1="0.12499999999999978" x2="0.20000000000000018" y2="0.891666666666666" gradientTransform="matrix(19.2,0,0,19.2,6.4,6.4)" gradientUnits="userSpaceOnUse"><stop offset="2.1739130434782608%" stop-opacity="1" style="stop-color:rgb(28,0,61)"/><stop offset="99.56521739130434%" stop-opacity="1" style="stop-color:rgb(0,0,0)"/><stop offset="100%" stop-opacity="1" style="stop-color:rgb(0,0,0)"/></linearGradient><circle vector-effect="non-scaling-stroke" cx="15.999999999999996" cy="15.999999999999995" r="9.599999999999998" fill="url(#_lgradient_1)"/><g><path d=" M 11.777 15.137 L 11.319 15.309 L 11.319 15.309 L 11.319 15.309 Q 11.206 15.309 11.206 15.046 L 11.206 15.046 L 11.206 15.046 Q 11.206 14.548 11.623 12.527 L 11.623 12.527 L 11.786 12.527 L 11.786 12.527 Q 12.094 12.527 12.438 12.563 L 12.438 12.563 L 12.438 12.563 Q 12.574 12.264 12.592 12.037 L 12.592 12.037 L 11.713 12.037 L 11.713 12.037 Q 11.867 11.285 11.867 11.013 L 11.867 11.013 L 11.867 11.013 Q 11.867 10.741 11.831 10.56 L 11.831 10.56 L 11.831 10.56 Q 11.206 10.56 10.499 10.805 L 10.499 10.805 L 10.499 10.832 L 10.508 11.113 L 10.508 11.113 Q 10.508 11.548 10.435 12.037 L 10.435 12.037 L 9.864 12.037 L 9.864 12.037 Q 9.837 12.155 9.837 12.341 L 9.837 12.341 L 9.837 12.341 Q 9.837 12.527 9.855 12.635 L 9.855 12.635 L 9.855 12.635 Q 10.018 12.608 10.354 12.581 L 10.354 12.581 L 10.354 12.581 Q 10.29 12.953 10.154 13.555 L 10.154 13.555 L 10.154 13.555 Q 10.018 14.158 9.941 14.575 L 9.941 14.575 L 9.941 14.575 Q 9.864 14.992 9.864 15.323 L 9.864 15.323 L 9.864 15.323 Q 9.864 15.653 10.068 15.853 L 10.068 15.853 L 10.068 15.853 Q 10.272 16.052 10.589 16.052 L 10.589 16.052 L 10.589 16.052 C 11.011 16.052 11.52 15.831 12.008 15.454 Q 12.059 15.414 12.077 15.392 Q 12.37 15.155 12.688 15.01 L 12.688 15.01 L 12.688 15.01 Q 13.045 14.847 13.231 14.847 L 13.231 14.847 L 13.231 14.847 Q 13.417 14.847 13.517 14.928 L 13.517 14.928 L 13.517 14.928 Q 13.716 15.101 13.716 15.934 L 13.716 15.934 L 13.716 15.934 Q 13.245 16.369 12.796 16.909 L 12.796 16.909 L 12.796 16.909 Q 12.348 17.448 11.949 18.205 L 11.949 18.205 L 11.949 18.205 Q 11.55 18.961 11.55 19.519 L 11.55 19.519 L 11.55 19.519 Q 11.55 20.076 11.845 20.389 L 11.845 20.389 L 11.845 20.389 Q 12.139 20.701 12.66 20.701 L 12.66 20.701 L 12.66 20.701 Q 13.181 20.701 13.675 20.226 L 13.675 20.226 L 13.675 20.226 Q 14.169 19.75 14.477 18.988 L 14.477 18.988 L 14.477 18.988 Q 15.13 17.375 15.13 15.526 L 15.13 15.526 L 15.13 15.526 Q 15.773 14.965 16.172 14.965 L 16.172 14.965 L 16.172 14.965 Q 16.544 14.965 16.544 15.427 L 16.544 15.427 L 16.544 15.427 Q 16.544 15.762 16.063 17.792 L 16.063 17.792 L 16.063 17.792 Q 15.583 19.822 15.583 20.384 L 15.583 20.384 L 15.701 20.384 L 15.701 20.384 Q 16.625 20.384 16.979 20.248 L 16.979 20.248 L 16.979 20.248 Q 17.024 18.862 17.64 16.596 L 17.64 16.596 L 17.64 16.596 Q 17.921 15.563 17.939 15.49 L 17.939 15.49 L 17.939 15.49 Q 18.547 14.965 18.9 14.965 L 18.9 14.965 L 18.9 14.965 Q 19.254 14.965 19.254 15.463 L 19.254 15.463 L 19.254 15.463 Q 19.254 15.862 18.828 17.516 L 18.828 17.516 L 18.828 17.516 Q 18.402 19.17 18.402 19.569 L 18.402 19.569 L 18.402 19.569 Q 18.402 19.967 18.615 20.212 L 18.615 20.212 L 18.615 20.212 Q 18.828 20.457 19.344 20.457 L 19.344 20.457 L 19.344 20.457 Q 19.861 20.457 20.45 20.049 L 20.45 20.049 L 20.314 19.704 L 20.314 19.704 L 20.314 19.704 Q 20.178 19.75 20.087 19.75 L 20.087 19.75 L 20.087 19.75 Q 19.815 19.75 19.815 19.319 L 19.815 19.319 L 19.815 19.319 Q 19.815 18.889 20.26 17.257 L 20.26 17.257 L 20.26 17.257 Q 20.704 15.626 20.704 15.087 L 20.704 15.087 L 20.704 15.087 Q 20.704 14.548 20.427 14.23 L 20.427 14.23 L 20.427 14.23 Q 20.151 13.913 19.752 13.913 L 19.752 13.913 L 19.752 13.913 Q 19.036 13.913 17.967 14.82 L 17.967 14.82 L 17.967 14.82 Q 17.894 14.366 17.636 14.14 L 17.636 14.14 L 17.636 14.14 Q 17.378 13.913 17.015 13.913 L 17.015 13.913 L 17.015 13.913 Q 16.29 13.913 15.039 14.937 L 15.039 14.937 L 15.039 14.937 Q 14.922 14.539 14.636 14.28 L 14.636 14.28 L 14.636 14.28 Q 14.351 14.022 13.857 14.022 L 13.857 14.022 L 13.857 14.022 Q 13.363 14.022 12.728 14.385 L 12.728 14.385 L 12.728 14.385 Q 12.094 14.747 11.777 15.137 L 11.777 15.137 L 11.777 15.137 Z  M 12.484 19.84 L 12.484 19.84 L 12.484 19.84 Q 12.846 19.84 13.204 18.939 L 13.204 18.939 L 13.204 18.939 Q 13.562 18.037 13.689 16.677 L 13.689 16.677 L 13.689 16.677 Q 13.109 17.276 12.647 18.096 L 12.647 18.096 L 12.647 18.096 Q 12.185 18.916 12.185 19.378 L 12.185 19.378 L 12.185 19.378 Q 12.185 19.84 12.484 19.84 L 12.484 19.84 Z " fill-rule="evenodd" fill="rgb(255,255,255)"/><path d=" M 21.365 21.44 L 21.365 21.44 L 21.365 21.44 Q 21.048 21.44 20.876 21.25 L 20.876 21.25 L 20.876 21.25 Q 20.704 21.059 20.704 20.742 L 20.704 20.742 L 20.704 20.742 Q 20.704 20.425 20.939 20.194 L 20.939 20.194 L 20.939 20.194 Q 21.175 19.963 21.497 19.963 L 21.497 19.963 L 21.497 19.963 Q 21.818 19.963 21.991 20.149 L 21.991 20.149 L 21.991 20.149 Q 22.163 20.334 22.163 20.647 L 22.163 20.647 L 22.163 20.647 Q 22.163 20.96 21.923 21.2 L 21.923 21.2 L 21.923 21.2 Q 21.682 21.44 21.365 21.44 Z " fill="rgb(255,255,255)"/></g></g></g></svg>