<?xml version="1.0" encoding="UTF-8" standalone="no"?><!-- Generator: Gravit.io --><svg xmlns="http://www.w3.org/2000/svg" xmlns:xlink="http://www.w3.org/1999/xlink" style="isolation:isolate" viewBox="0 0 32 32" width="32pt" height="32pt"><defs><clipPath id="_clipPath_q5NqPl4D6m7SJymRIh8MPNYlMCfygDpd"><rect width="32" height="32"/></clipPath></defs><g clip-path="url(#_clipPath_q5NqPl4D6m7SJymRIh8MPNYlMCfygDpd)"><path d=" M 16 4 C 9.371 4 4 9.371 4 16 C 4 21.301 7.438 25.801 12.207 27.387 C 12.809 27.496 13.027 27.129 13.027 26.809 C 13.027 26.523 13.016 25.77 13.012 24.77 C 9.672 25.492 8.969 23.16 8.969 23.16 C 8.422 21.773 7.637 21.402 7.637 21.402 C 6.547 20.66 7.719 20.676 7.719 20.676 C 8.922 20.762 9.555 21.91 9.555 21.91 C 10.625 23.746 12.363 23.215 13.047 22.91 C 13.156 22.133 13.469 21.605 13.809 21.305 C 11.145 21.004 8.344 19.973 8.344 15.375 C 8.344 14.063 8.813 12.992 9.578 12.152 C 9.457 11.852 9.043 10.629 9.695 8.977 C 9.695 8.977 10.703 8.656 12.996 10.207 C 13.953 9.941 14.98 9.809 16 9.805 C 17.02 9.809 18.047 9.941 19.004 10.207 C 21.297 8.656 22.301 8.977 22.301 8.977 C 22.957 10.629 22.547 11.852 22.422 12.152 C 23.191 12.992 23.652 14.063 23.652 15.375 C 23.652 19.984 20.848 20.996 18.176 21.297 C 18.605 21.664 18.988 22.398 18.988 23.516 C 18.988 25.121 18.977 26.414 18.977 26.809 C 18.977 27.129 19.191 27.504 19.801 27.387 C 24.566 25.797 28 21.301 28 16 C 28 9.371 22.629 4 16 4 Z " fill-rule="evenodd" fill="rgb(255,255,255)"/></g></svg>